<svg width="1920" heigth="1080" xmlns="http://www.w3.org/2000/svg">
<circle cx="65" cy="85" r="54" fill="#66ff99" />
					 <text x="65" y="25" font-family="Arial" font-size="8">Canada(54)</text>
<circle cx="130" cy="85" r="6" fill="#00ffff" />
					 <text x="130" y="25" font-family="Arial" font-size="8">Norway(6)</text>
<circle cx="195" cy="85" r="21" fill="#0099ff" />
					 <text x="195" y="25" font-family="Arial" font-size="8">USA(21)</text>
<circle cx="260" cy="85" r="4" fill="#cc99ff" />
					 <text x="260" y="25" font-family="Arial" font-size="8">Austria(4)</text>
<circle cx="325" cy="85" r="7" fill="008877c" />
					 <text x="325" y="25" font-family="Arial" font-size="8">Germany(7)</text>
<circle cx="390" cy="85" r="6" fill="#ff9900" />
					 <text x="390" y="25" font-family="Arial" font-size="8">Netherlands(6)</text>
<circle cx="455" cy="85" r="5" fill="#999966" />
					 <text x="455" y="25" font-family="Arial" font-size="8">Australia(5)</text>
<circle cx="520" cy="85" r="3" fill="#9933ff" />
					 <text x="520" y="25" font-family="Arial" font-size="8">Liechtenstein(3)</text>
<circle cx="585" cy="85" r="1" fill="#ffcffx" />
					 <text x="585" y="25" font-family="Arial" font-size="8">Korea(1)</text>
<circle cx="650" cy="85" r="1" fill="#cc3300" />
					 <text x="650" y="25" font-family="Arial" font-size="8">Czech Rep(1)</text>
<circle cx="715" cy="85" r="1" fill="#006699" />
					 <text x="715" y="25" font-family="Arial" font-size="8">Spain(1)</text>
<circle cx="780" cy="85" r="2" fill="#ffff00" />
					 <text x="780" y="25" font-family="Arial" font-size="8">Sweden(2)</text>
<circle cx="845" cy="85" r="7" fill="#cc6699" />
					 <text x="845" y="25" font-family="Arial" font-size="8">Switzerland(7)</text>
<circle cx="910" cy="85" r="1" fill="#6500cc" />
					 <text x="910" y="25" font-family="Arial" font-size="8">Italy(1)</text>
<circle cx="975" cy="85" r="5" fill="#66ffcc" />
					 <text x="975" y="25" font-family="Arial" font-size="8">New Zealand(5)</text>
<circle cx="1040" cy="85" r="15" fill="#ff9900" />
					 <text x="1040" y="25" font-family="Arial" font-size="8">Luxembourg(15)</text>
<circle cx="1105" cy="85" r="4" fill="#ccffff" />
					 <text x="1105" y="25" font-family="Arial" font-size="8">Iceland(4)</text>
<circle cx="1170" cy="85" r="2" fill="#ff5050" />
					 <text x="1170" y="25" font-family="Arial" font-size="8">Malta(2)</text>
<circle cx="1235" cy="85" r="1" fill="#0066ff" />
					 <text x="1235" y="25" font-family="Arial" font-size="8">Belgium(1)</text>
<circle cx="1300" cy="85" r="1" fill="undefined" />
					 <text x="1300" y="25" font-family="Arial" font-size="8">Finland(1)</text>
					 <text x="45" y="170" font-family="Arial" font-size="20">Destination des Migrations Suisses</text>
</svg>